<svg width="1000" height="620" viewBox="0 0 1000 620" fill="none" xmlns="http://www.w3.org/2000/svg">
<path d="M905.293 191.575C897.769 139.717 868.778 94.7191 821.31 61.4504C776.349 29.9521 715.787 9.59255 645.967 2.6585C574.708 -4.42309 495.188 2.69538 415.889 23.3869C296.424 54.5533 187.618 113.087 109.942 188.292C29.9055 265.784 -7.60476 351.795 4.6036 430.136C12.8286 483.137 43.5523 528.688 93.3078 561.883C140.113 593.086 202.667 612.56 274.11 618.24C288.679 619.384 303.579 619.974 318.701 619.974C378.563 619.974 442.224 610.974 505.22 593.492C622.841 560.85 728.696 501.947 803.679 427.738C880.397 351.795 916.395 268.07 905.293 191.611V191.575Z" fill="white"/>
<path d="M20.2841 427.369C-3.063 277.069 176.927 102.906 419.361 39.5779C658.475 -22.9024 867.345 46.6226 888.701 193.602C909.982 340.14 737.258 511.204 500.062 576.93C259.656 643.541 43.5206 577.151 20.2841 427.369Z" fill="#D3000A"/>
<path d="M960.071 266.448L939.822 242.031L947.9 220.528L946.941 214.811L924.405 187.665L919.979 185.563H842.819L837.435 189.288L819.436 237.199H810.067L808.334 238.416L805.641 237.162H742.866L738.182 240.334C729.662 236.056 720.699 235.503 712.806 235.65L814.899 120.943L815.046 113.419L791.515 85.0189L787.089 82.9165H697.168L692.889 84.7976L656.116 125.295L633.876 98.4813L629.45 96.3789H549.45L544.065 100.104L501.76 212.082L481.474 187.628L477.048 185.526H399.888L394.503 189.251L388.934 204.115L375.324 187.739C374.218 186.411 373 185.194 371.71 184.05L427.92 120.906L428.067 113.382L404.536 84.982L400.11 82.8796H310.188L305.91 84.7607L269.174 125.259L246.933 98.4444L242.507 96.342H162.545L157.16 100.067L0 515.557L0.958965 521.274L23.4946 548.42L27.9206 550.523H104.675L110.06 546.797L149.672 442.823L162.913 519.651L164.167 522.344L185.523 548.125L189.949 550.191H270.686L276.366 543.441L260.322 450.753H318.118L323.503 447.028L325.937 440.537L332.724 448.688L337.15 450.753H411.47L387.016 515.483L387.975 521.2L410.511 548.346L414.937 550.449H491.691L497.076 546.724L536.688 442.787L549.893 519.578L551.147 522.27L572.502 548.051L576.928 550.117H657.666L663.346 543.367L646.269 444.704C654.899 449.979 664.673 450.901 673.599 450.901C680.238 450.901 687.246 449.794 694.143 447.655L694.954 448.651L699.38 450.716H761.971L767.356 446.991L769.532 441.237L775.692 448.651L780.118 450.716H857.278L862.663 446.991L905.632 332.653H934.179L939.564 328.928L960.92 272.054L959.961 266.337L960.071 266.448Z" fill="#502C1C"/>
<path d="M367.535 196.738C371.445 202.64 372.256 209.611 369.822 216.914C366.576 226.909 357.429 236.462 347.065 240.666C343.672 242.179 339.983 243.211 336.111 243.728C335.336 243.838 334.598 243.912 333.824 243.949L333.16 244.023H331.795C330.32 244.023 328.734 243.949 327.554 243.765H327.222C316.452 242.031 309.333 235.835 307.71 226.614C305.608 214.922 312.69 201.238 324.529 194.009C330.91 189.546 339.024 187.075 346.696 187.075C348.614 187.075 350.495 187.223 352.302 187.555C358.941 188.698 364.216 191.907 367.535 196.812V196.738ZM358.646 248.596H288.162L227.047 411.325L208.863 306.171L397.226 94.4981H312.542L195.77 223.184L239.55 107.96H166.3L11.9805 516.516H82.0218L145.387 350.21L173.972 516.184H245.156L227.932 416.747H295.428L358.573 248.596H358.646ZM468.595 298.721L487.369 248.744H454.801L474.238 197.107H403.755L384.354 248.744H370.965L352.192 298.721H365.58L321.21 416.784H391.694L436.064 298.721H468.595ZM802.905 248.67L739.392 416.784H683.514L686.981 407.6C677.023 413.575 665.478 416.968 655.003 416.968C641.615 416.968 632.246 414.682 625.349 404.096C614.579 387.609 614.506 360.869 625.165 330.735C643.201 279.873 677.797 247.121 714.09 247.121C727.11 247.121 735.741 249.74 742.675 258.813L746.732 248.633H802.905V248.67ZM728.585 296.766C726.077 292.451 722.352 290.496 716.303 290.496C714.533 290.496 712.578 290.643 710.402 290.975C699.89 292.524 686.243 310.45 677.023 335.235C667.433 360.648 669.277 366.07 671.379 370.016C672.523 372.155 677.17 373.852 680.637 373.852C680.858 373.852 681.08 373.852 681.301 373.852C691.702 373.188 700.997 368.467 707.451 353.898L728.585 296.766ZM784.316 94.4981H699.632L582.823 223.184L626.64 107.96H553.353L399.033 516.48H469.075L532.44 350.173L560.988 516.148H632.173L595.843 306.134L784.242 94.4612L784.316 94.4981ZM897.88 248.744L917.28 197.107H846.796L827.396 248.744H814.007L795.234 298.721H808.585L764.215 416.784H834.699L879.069 298.721H911.6L930.374 248.744H897.843H897.88Z" fill="white"/>
<path d="M969.634 254.295V251.15H971.228C971.356 251.15 971.495 251.187 971.646 251.261C971.796 251.332 971.924 251.443 972.029 251.593C972.137 251.741 972.191 251.928 972.191 252.156C972.191 252.386 972.136 252.582 972.025 252.744C971.914 252.903 971.779 253.024 971.62 253.106C971.464 253.188 971.316 253.229 971.177 253.229H970.026V252.718H970.964C971.058 252.718 971.158 252.671 971.266 252.578C971.377 252.484 971.433 252.343 971.433 252.156C971.433 251.962 971.377 251.832 971.266 251.764C971.158 251.695 971.063 251.661 970.981 251.661H970.325V254.295H969.634ZM971.535 252.812L972.319 254.295H971.56L970.793 252.812H971.535ZM970.827 256.17C970.356 256.17 969.914 256.082 969.502 255.906C969.09 255.729 968.728 255.485 968.415 255.173C968.103 254.86 967.859 254.498 967.683 254.086C967.506 253.674 967.418 253.232 967.418 252.761C967.418 252.289 967.506 251.847 967.683 251.435C967.859 251.024 968.103 250.661 968.415 250.349C968.728 250.036 969.09 249.792 969.502 249.616C969.914 249.44 970.356 249.352 970.827 249.352C971.299 249.352 971.741 249.44 972.153 249.616C972.565 249.792 972.927 250.036 973.239 250.349C973.552 250.661 973.796 251.024 973.972 251.435C974.148 251.847 974.237 252.289 974.237 252.761C974.237 253.232 974.148 253.674 973.972 254.086C973.796 254.498 973.552 254.86 973.239 255.173C972.927 255.485 972.565 255.729 972.153 255.906C971.741 256.082 971.299 256.17 970.827 256.17ZM970.827 255.352C971.305 255.352 971.739 255.235 972.131 255.002C972.523 254.769 972.836 254.457 973.069 254.065C973.302 253.673 973.418 253.238 973.418 252.761C973.418 252.283 973.302 251.849 973.069 251.457C972.836 251.065 972.523 250.752 972.131 250.519C971.739 250.286 971.305 250.17 970.827 250.17C970.35 250.17 969.915 250.286 969.523 250.519C969.131 250.752 968.819 251.065 968.586 251.457C968.353 251.849 968.237 252.283 968.237 252.761C968.237 253.238 968.353 253.673 968.586 254.065C968.819 254.457 969.131 254.769 969.523 255.002C969.915 255.235 970.35 255.352 970.827 255.352Z" fill="#502C1C"/>
</svg>
